<svg xmlns="http://www.w3.org/2000/svg" width="43.184" height="63" viewBox="0 0 43.184 63"><defs><style>.a{fill:#2ce6ff;}.b,.c,.d{fill:none;stroke:#102133;stroke-width:3px;}.b,.d{stroke-linecap:round;}.b,.c{stroke-miterlimit:10;}.d{stroke-linejoin:round;}.e{fill:#0f2134;}</style></defs><g transform="translate(122.04 -141.325)"><ellipse class="a" cx="14.254" cy="14.178" rx="14.254" ry="14.178" transform="translate(-114.585 149.046)"/><path class="a" d="M-118.58,200.358l8.4-17.066,8.927,3.151-9.373,19.884-2.255-6.611Z" transform="translate(-0.116 -3.501)"/><path class="b" d="M-100.448,142.825a20.28,20.28,0,0,1,20.092,20.463,20.28,20.28,0,0,1-20.092,20.463,20.28,20.28,0,0,1-20.092-20.463,20.591,20.591,0,0,1,5.688-14.266" transform="translate(0 0)"/><ellipse class="c" cx="14.447" cy="14.818" rx="14.447" ry="14.818" transform="translate(-114.896 148.47)"/><g transform="translate(-119.607 180.103)"><path class="d" d="M-83.364,193.251l4.147,8.9-6.611-2.255-2.255,6.611-9.958-20.181" transform="translate(117.534 -183.784)"/><path class="d" d="M-110.524,183.624l-9.024,18.365,6.611-2.255,2.255,6.611,9.958-20.181" transform="translate(119.548 -183.624)"/></g><path class="d" d="M-105.54,165.014l4.234,4.939,9.878-9.878" transform="translate(-1.278 -1.372)"/><circle class="e" cx="1.764" cy="1.764" r="1.764" transform="translate(-89.949 183.088)"/></g></svg>