<svg xmlns="http://www.w3.org/2000/svg" width="64.11" height="63" viewBox="0 0 64.11 63"><defs><style>.a{fill:#6cffa7;}.b{fill:none;stroke:#102133;stroke-linecap:round;stroke-linejoin:round;stroke-width:3px;}.c{fill:#0f2134;}</style></defs><g transform="translate(-148.659 120.773)"><path class="a" d="M183.512-60.069,151.89-60.5l-.4-58.281Z" transform="translate(0.032 0.012)"/><path class="b" d="M185.457-81.9v18.839a3.63,3.63,0,0,1-3.444,3.79H153.6a3.629,3.629,0,0,1-3.443-3.79v-52.42a3.629,3.629,0,0,1,3.443-3.789h28.411a3.629,3.629,0,0,1,3.444,3.789v4.841" transform="translate(0)"/><line class="b" x2="14.571" transform="translate(162.158 -112.386)"/><line class="b" x2="34.437" transform="translate(150.159 -73.486)"/><circle class="c" cx="1.92" cy="1.92" r="1.92" transform="translate(167.098 -67.455)"/><path class="b" d="M161.931-91.112h6.682l4.773-5.166,4.773,10.331,7.018-18.94L193.43-79.92l2.864-12.053h9.148" transform="translate(5.827 3.075)"/></g></svg>