<svg xmlns="http://www.w3.org/2000/svg" width="43.2" height="24" viewBox="0 0 43.2 24"><defs><style>.a{fill:#ffb3c7;}.b{fill:#0a0b09;}</style></defs><rect class="a" width="43.2" height="24" rx="4.321"/><path class="b" d="M39.045,14.646a1,1,0,0,0-.72.317,1.124,1.124,0,0,0,0,1.518,1,1,0,0,0,.72.317,1.047,1.047,0,0,0,1.015-1.076,1.1,1.1,0,0,0-.295-.759,1,1,0,0,0-.72-.317Zm-3.339-.831a1.465,1.465,0,1,0-1.464,1.472,1.469,1.469,0,0,0,1.464-1.472Zm.006-2.863h1.616v5.725H35.712v-.366a2.724,2.724,0,0,1-1.6.524,2.938,2.938,0,0,1-2.849-3.02,2.938,2.938,0,0,1,2.849-3.02,2.719,2.719,0,0,1,1.6.524ZM22.773,11.7v-.745H21.118v5.724h1.659V14a1.526,1.526,0,0,1,1.561-1.386h.019V10.953A1.97,1.97,0,0,0,22.773,11.7Zm-4.124,2.117a1.465,1.465,0,1,0-1.464,1.472,1.469,1.469,0,0,0,1.464-1.472Zm.006-2.863h1.617v5.725H18.655v-.366a2.726,2.726,0,0,1-1.6.524,2.938,2.938,0,0,1-2.849-3.02,2.938,2.938,0,0,1,2.849-3.02,2.719,2.719,0,0,1,1.6.524Zm9.732-.153a1.922,1.922,0,0,0-1.666.8v-.644h-1.61v5.724h1.63V13.669a1.173,1.173,0,0,1,1.214-1.3c.71,0,1.119.45,1.119,1.285v3.02h1.614v-3.64a2.194,2.194,0,0,0-2.3-2.238ZM11.848,16.677H13.54V8.4H11.848Zm-7.435,0H6.205V8.4H4.414ZM10.682,8.4a6.789,6.789,0,0,1-1.833,4.7l2.477,3.58H9.113l-2.691-3.89.695-.552A4.855,4.855,0,0,0,8.927,8.4h1.753Z" transform="translate(0 -0.507)"/></svg>