<svg xmlns="http://www.w3.org/2000/svg" width="55.712" height="62.466" viewBox="0 0 55.712 62.466"><defs><style>.a{fill:#80edff;}.b{fill:none;stroke:#102133;stroke-linecap:round;stroke-linejoin:round;stroke-width:3px;}</style></defs><g transform="translate(-18.073 -16.924)"><path class="a" d="M47.007,17.89V77.579L59.2,68.444l12.52-21.286L73.58,34.919l-8.258-3.725S59.2,28.8,58.4,28,47.007,17.89,47.007,17.89Z" transform="translate(-1.31 0)"/><path class="b" d="M39.737,49.661,45.4,55.689,55.912,41.93" transform="translate(-0.949 -1.128)"/><path class="b" d="M46.515,77.6c21.762-9.626,25.77-44.276,25.77-44.276-13.744,0-25.77-13.993-25.77-13.993l-.786-.887-.769.887S33.318,33.329,19.573,33.329c0,0,3.625,34.65,25.387,44.276l.836.311Z" transform="translate(0 -0.025)"/></g></svg>